<svg width="199" height="61" viewBox="0 0 199 61" fill="none" xmlns="http://www.w3.org/2000/svg">
<path d="M64.238 32.3V45.1H61.4407V40H57.5445V45.1H54.7472V32.3H57.5445V37.3H61.4407V32.3H64.238Z" fill="#8C1B3C"/>
<path d="M73.529 41.8C73.529 43.9 72.9296 45.3 69.2332 45.3C68.4339 45.3 67.5348 45.3 66.5358 45.1V42.5C67.335 42.6 68.1342 42.7 69.0334 42.7C70.3321 42.7 70.6318 42.5 70.6318 41.3V35H67.1352V32.4H73.529C73.529 32.3 73.529 41.8 73.529 41.8Z" fill="#8C1B3C"/>
<path d="M84.4186 42.5V45.1H76.6261V32.3H84.4186V34.9H79.4234V37.2H83.2197V39.8H79.4234V42.4L84.4186 42.5Z" fill="#8C1B3C"/>
<path d="M86.8163 32.3H89.7135L93.31 39.1L97.1064 32.3H99.8038V45.1H97.0065V37.7L94.409 42.6H92.4109L89.8134 37.7V45.1H87.0161L86.8163 32.3Z" fill="#8C1B3C"/>
<path d="M103.001 32.3H105.898L109.494 39.1L113.291 32.3H115.988V45.1H113.191V37.7L110.593 42.6H108.595L105.998 37.7V45.1H103.2L103.001 32.3Z" fill="#8C1B3C"/>
<path d="M126.978 42.5V45.1H119.185V32.3H126.978V34.9H121.982V37.2H125.779V39.8H121.982V42.4L126.978 42.5Z" fill="#8C1B3C"/>
<path d="M131.074 43.7L128.776 32.3H131.773L133.571 42.3C133.671 42.6 133.671 42.7 134.071 42.7C134.47 42.7 134.47 42.6 134.57 42.3L136.368 32.3H139.366L137.068 43.7C136.768 45 136.368 45.3 134.071 45.3C131.773 45.3 131.373 45 131.074 43.7Z" fill="#8C1B3C"/>
<path d="M153.552 42.4V45.1H146.958V41.7H143.861L143.162 45.1H140.165L142.562 34.4C142.962 32.7 143.262 32.4 145.759 32.4H153.452V35H149.756V37.4H152.453V39.9H149.756V42.4H153.552ZM146.958 34.9H146.059C145.26 34.9 145.16 35 145.06 35.8L144.361 39.1H146.958V34.9Z" fill="#8C1B3C"/>
<path d="M160.445 41L158.847 41.7V45.1H156.049V32.3H160.845C163.642 32.3 164.941 33 164.941 35.9V36.2C164.941 38.7 164.541 39.4 163.143 39.9L163.043 40L165.64 45H162.443L160.445 41ZM158.847 38.8L161.244 38C161.844 37.8 162.144 37.6 162.144 36.6V36.3C162.144 35.2 161.844 34.9 160.945 34.9H158.847V38.8Z" fill="#8C1B3C"/>
<path d="M167.938 32.3H170.336L174.632 39.4V32.3H177.429V45.1H175.031L170.735 38.1V45.1H167.938V32.3Z" fill="#8C1B3C"/>
<path d="M188.518 42.5V45.1H180.726V32.3H188.518V34.9H183.523V37.2H187.319V39.8H183.523V42.4L188.518 42.5Z" fill="#8C1B3C"/>
<path d="M198.908 34.9H195.911V45.1H193.114V34.9H189.917V32.3H198.908V34.9Z" fill="#8C1B3C"/>
<path d="M19.681 56.1C10.7896 55.1 3.79634 47.6 3.79634 38.4C3.79634 34.2 5.29489 30.3 7.69258 27.2L4.99518 24.5C1.89817 28.3 0 33.1 0 38.4C0 49.7 8.69162 59 19.681 60V56.1Z" fill="#8C1B3C"/>
<path d="M35.4657 27.3C37.9633 30.4 39.362 34.2 39.362 38.5C39.362 47.7 32.3687 55.2 23.4773 56.2V60.1C34.5666 59 43.2582 49.8 43.2582 38.5C43.2582 33.2 41.36 28.4 38.263 24.6C38.1631 24.6 35.4657 27.3 35.4657 27.3Z" fill="#8C1B3C"/>
<path d="M17.3833 32.3V45.1H14.586V40H11.489V45.1H8.69165V32.3H11.489V37.3H14.586V32.3H17.3833Z" fill="#8C1B3C"/>
<path d="M24.3764 41.8C24.3764 43.9 23.777 45.3 20.0806 45.3C19.2814 45.3 19.1815 45.3 18.0825 45.1V42.5C18.8817 42.6 18.8817 42.7 19.8808 42.7C21.1795 42.7 21.4792 42.5 21.4792 41.3V32.4H24.2765L24.3764 41.8Z" fill="#8C1B3C"/>
<path d="M27.4734 43.7L25.1757 32.3H28.1728L29.971 42.3C30.0709 42.6 30.0709 42.7 30.4706 42.7C30.8702 42.7 30.8702 42.6 30.9701 42.3L32.7683 32.3H35.7654L33.4677 43.7C33.168 45 32.7683 45.3 30.4706 45.3C28.1728 45.3 27.6732 45 27.4734 43.7Z" fill="#8C1B3C"/>
<path d="M30.9701 11.5C31.5695 11.5 31.8692 11.8 31.8692 12.2C31.8692 12.4 31.7693 12.7 31.5695 12.9L27.7732 17.4H30.5705L33.168 14.4C33.8673 13.6 34.167 12.8 34.167 12.1C34.167 10.6 32.8683 9.39999 31.07 9.39999H30.6704V11.5H30.9701Z" fill="#8C1B3C"/>
<path d="M12.1883 11.5H12.488V9.39999H12.0883C10.2901 9.39999 8.99133 10.6 8.99133 12.1C8.99133 12.9 9.29104 13.7 9.99037 14.4L12.5879 17.4H15.3852L11.5888 13C11.389 12.8 11.2891 12.5 11.2891 12.3C11.2891 11.8 11.6887 11.5 12.1883 11.5Z" fill="#8C1B3C"/>
<path d="M16.6839 11.5H19.1814V9.39999H16.7838C14.7857 9.39999 13.4869 10.6 13.4869 12.1C13.4869 12.9 13.7866 13.7 14.486 14.4L16.9836 17.4H19.7809L15.9845 12.9C15.7847 12.7 15.6848 12.4 15.6848 12.2C15.6848 11.8 16.0844 11.5 16.6839 11.5Z" fill="#8C1B3C"/>
<path d="M26.5744 11.5C27.1738 11.5 27.4735 11.8 27.4735 12.2C27.4735 12.4 27.3736 12.7 27.1738 12.9L23.3774 17.4H26.1747L28.6723 14.4C29.2718 13.6 29.6714 12.8 29.6714 12.1C29.6714 10.6 28.3726 9.39999 26.3746 9.39999H23.9769V11.5H26.5744Z" fill="#8C1B3C"/>
<path d="M22.6781 9.39999H20.4802V17.5H22.6781V9.39999Z" fill="#8C1B3C"/>
<path d="M29.8712 18.9H13.2872V22.7H29.8712V18.9Z" fill="#8C1B3C"/>
<path d="M21.5791 8.39999C22.6826 8.39999 23.5772 7.50456 23.5772 6.39999C23.5772 5.29542 22.6826 4.39999 21.5791 4.39999C20.4756 4.39999 19.5811 5.29542 19.5811 6.39999C19.5811 7.50456 20.4756 8.39999 21.5791 8.39999Z" fill="#8C1B3C"/>
<path d="M21.0796 1.2H19.7809V2.2H21.0796V3.4H22.1786V2.2H23.4773V1.2H22.1786V0H21.0796V1.2Z" fill="#8C1B3C"/>
</svg>
